STARTFONT 2.1
FONT -mplus-gothic-bold-R-normal--12-120-75-75-C-120-unicode.2004-0
SIZE 13 75 75
FONTBOUNDINGBOX 12 13 0 -2
STARTPROPERTIES 23
FONTNAME_REGISTRY ""
FOUNDRY "mplus"
FAMILY_NAME "gothic"
WEIGHT_NAME "bold"
SLANT "R"
SETWIDTH_NAME "normal"
ADD_STYLE_NAME ""
PIXEL_SIZE 12
POINT_SIZE 120
RESOLUTION_X 75
RESOLUTION_Y 75
SPACING "C"
AVERAGE_WIDTH 120
CHARSET_REGISTRY "unicode.2004"
CHARSET_ENCODING "0"
COPYRIGHT "Copyright (C) 2022-2023 itouhiro"
WEIGHT 10
X_HEIGHT 11
QUAD_WIDTH 12
DEFAULT_CHAR 8
FONT_DESCENT 2
FONT_ASCENT 11
ENDPROPERTIES
CHARS 49
STARTCHAR 0x30FF
ENCODING 8760
SWIDTH 886 0
DWIDTH 12 0
BBX 12 13 0 -2
BITMAP
0000
0000
7fc0
00c0
00c0
00c0
00c0
00c0
00c0
00c0
00c0
0000
0000
ENDCHAR
STARTCHAR 0x303C
ENCODING 8759
SWIDTH 886 0
DWIDTH 12 0
BBX 12 13 0 -2
BITMAP
0000
0000
ffc0
c1c0
c340
c6c0
ccc0
d8c0
d0c0
e0c0
ffc0
0000
0000
ENDCHAR
STARTCHAR 0x25B7
ENCODING 8993
SWIDTH 886 0
DWIDTH 12 0
BBX 12 13 0 -2
BITMAP
0000
0000
e000
d800
ce00
c380
c0c0
c380
ce00
d800
e000
0000
0000
ENDCHAR
STARTCHAR 0x25B6
ENCODING 8994
SWIDTH 886 0
DWIDTH 12 0
BBX 12 13 0 -2
BITMAP
0000
0000
e000
f800
fe00
ff80
ffc0
ff80
fe00
f800
e000
0000
0000
ENDCHAR
STARTCHAR 0x25C1
ENCODING 8995
SWIDTH 886 0
DWIDTH 12 0
BBX 12 13 0 -2
BITMAP
0000
0000
01c0
0740
1cc0
70c0
c0c0
70c0
1cc0
0740
01c0
0000
0000
ENDCHAR
STARTCHAR 0x25C0
ENCODING 8996
SWIDTH 886 0
DWIDTH 12 0
BBX 12 13 0 -2
BITMAP
0000
0000
01c0
07c0
1fc0
7fc0
ffc0
7fc0
1fc0
07c0
01c0
0000
0000
ENDCHAR
STARTCHAR 0x2664
ENCODING 9785
SWIDTH 886 0
DWIDTH 12 0
BBX 12 13 0 -2
BITMAP
0000
0c00
1a00
3300
6180
c0c0
c0c0
dac0
7b80
1a00
3f00
0000
0000
ENDCHAR
STARTCHAR 0x2660
ENCODING 9786
SWIDTH 886 0
DWIDTH 12 0
BBX 12 13 0 -2
BITMAP
0000
0c00
1e00
3f00
7f80
ffc0
ffc0
ffc0
7580
0c00
3f00
0000
0000
ENDCHAR
STARTCHAR 0x2662
ENCODING 9787
SWIDTH 886 0
DWIDTH 12 0
BBX 12 13 0 -2
BITMAP
0000
0c00
1a00
3300
6180
c0c0
c0c0
6180
3300
1a00
0c00
0000
0000
ENDCHAR
STARTCHAR 0x2666
ENCODING 9788
SWIDTH 886 0
DWIDTH 12 0
BBX 12 13 0 -2
BITMAP
0000
0c00
1e00
3f00
7f80
ffc0
ffc0
7f80
3f00
1e00
0c00
0000
0000
ENDCHAR
STARTCHAR 0x2661
ENCODING 9789
SWIDTH 886 0
DWIDTH 12 0
BBX 12 13 0 -2
BITMAP
0000
0000
0000
7b80
ccc0
c0c0
c0c0
6180
3300
1a00
0c00
0000
0000
ENDCHAR
STARTCHAR 0x2665
ENCODING 9790
SWIDTH 886 0
DWIDTH 12 0
BBX 12 13 0 -2
BITMAP
0000
0000
0000
7b80
ffc0
ffc0
ffc0
7f80
3f00
1e00
0c00
0000
0000
ENDCHAR
STARTCHAR 0x2667
ENCODING 9791
SWIDTH 886 0
DWIDTH 12 0
BBX 12 13 0 -2
BITMAP
0000
1e00
3300
3300
7b80
c0c0
c0c0
dac0
7b80
1a00
3f00
0000
0000
ENDCHAR
STARTCHAR 0x2663
ENCODING 9792
SWIDTH 886 0
DWIDTH 12 0
BBX 12 13 0 -2
BITMAP
0000
1e00
3f00
3f00
1e00
7f80
ffc0
ffc0
7580
0c00
3f00
0000
0000
ENDCHAR
STARTCHAR 0x2600
ENCODING 9832
SWIDTH 886 0
DWIDTH 12 0
BBX 12 13 0 -2
BITMAP
0000
0000
0c00
6180
1e00
3f00
df40
3f00
1e00
6180
0c00
0000
0000
ENDCHAR
STARTCHAR 0x3020
ENCODING 9830
SWIDTH 886 0
DWIDTH 12 0
BBX 12 13 0 -2
BITMAP
0000
7f80
0000
7f80
0c00
ccc0
d540
c0c0
dec0
6180
3f00
0000
0000
ENDCHAR
STARTCHAR 0x2668
ENCODING 9836
SWIDTH 886 0
DWIDTH 12 0
BBX 12 13 0 -2
BITMAP
0000
0000
1b00
3600
3600
1b00
1b00
d6c0
c0c0
6180
3f00
0000
0000
ENDCHAR
STARTCHAR 0x2602
ENCODING 9834
SWIDTH 886 0
DWIDTH 12 0
BBX 12 13 0 -2
BITMAP
0000
0180
1f00
7f80
ff80
3fc0
0fc0
0dc0
18c0
d800
7000
0000
0000
ENDCHAR
STARTCHAR 0x2197
ENCODING 8993
SWIDTH 886 0
DWIDTH 12 0
BBX 12 13 0 -2
BITMAP
0000
0000
07c0
01c0
0340
06c0
0c00
1800
3000
6000
c000
0000
0000
ENDCHAR
STARTCHAR 0x2198
ENCODING 8994
SWIDTH 886 0
DWIDTH 12 0
BBX 12 13 0 -2
BITMAP
0000
0000
c000
6000
3000
1800
0c00
06c0
0340
01c0
07c0
0000
0000
ENDCHAR
STARTCHAR 0x2196
ENCODING 8995
SWIDTH 886 0
DWIDTH 12 0
BBX 12 13 0 -2
BITMAP
0000
0000
f800
e000
d000
d800
0c00
0600
0300
0180
00c0
0000
0000
ENDCHAR
STARTCHAR 0x2199
ENCODING 8996
SWIDTH 886 0
DWIDTH 12 0
BBX 12 13 0 -2
BITMAP
0000
0000
00c0
0180
0300
0600
0c00
d800
d000
e000
f800
0000
0000
ENDCHAR
STARTCHAR 0x21C4
ENCODING 8993
SWIDTH 886 0
DWIDTH 12 0
BBX 12 13 0 -2
BITMAP
0000
0000
0300
0180
7fc0
0180
3300
6000
ff80
6000
3000
0000
0000
ENDCHAR
STARTCHAR 0x21E8
ENCODING 8994
SWIDTH 886 0
DWIDTH 12 0
BBX 12 13 0 -2
BITMAP
0000
0000
1c00
1a00
fb00
c180
c0c0
c180
fb00
1a00
1c00
0000
0000
ENDCHAR
STARTCHAR 0x21E6
ENCODING 8995
SWIDTH 886 0
DWIDTH 12 0
BBX 12 13 0 -2
BITMAP
0000
0000
0e00
1a00
37c0
60c0
c0c0
60c0
37c0
1a00
0e00
0000
0000
ENDCHAR
STARTCHAR 0x21E7
ENCODING 8996
SWIDTH 886 0
DWIDTH 12 0
BBX 12 13 0 -2
BITMAP
0000
0c00
1a00
3300
6180
c0c0
f3c0
3300
3300
3300
3f00
0000
0000
ENDCHAR
STARTCHAR 0x21E9
ENCODING 8993
SWIDTH 886 0
DWIDTH 12 0
BBX 12 13 0 -2
BITMAP
0000
3f00
3300
3300
3300
f3c0
c0c0
6180
3300
1a00
0c00
0000
0000
ENDCHAR
STARTCHAR 0x2616
ENCODING 8994
SWIDTH 886 0
DWIDTH 12 0
BBX 12 13 0 -2
BITMAP
0000
0c00
3b00
6180
c0c0
c0c0
c0c0
c0c0
c0c0
c0c0
ffc0
0000
0000
ENDCHAR
STARTCHAR 0x2617
ENCODING 8995
SWIDTH 886 0
DWIDTH 12 0
BBX 12 13 0 -2
BITMAP
0000
0c00
3f00
7f80
ffc0
ffc0
ffc0
ffc0
ffc0
ffc0
ffc0
0000
0000
ENDCHAR
STARTCHAR 0x260E
ENCODING 8996
SWIDTH 886 0
DWIDTH 12 0
BBX 12 13 0 -2
BITMAP
0000
0000
7f80
ffc0
eac0
1e00
3700
6380
e3c0
f7c0
ffc0
0000
0000
ENDCHAR
STARTCHAR 0x2601
ENCODING 8993
SWIDTH 886 0
DWIDTH 12 0
BBX 12 13 0 -2
BITMAP
0000
0000
1e00
3300
3180
69a0
c0e0
c060
d8c0
6d80
3b00
0000
0000
ENDCHAR
STARTCHAR 0x2603
ENCODING 8994
SWIDTH 886 0
DWIDTH 12 0
BBX 12 13 0 -2
BITMAP
0000
1e00
3f00
6180
6a80
6180
d340
dec0
c0c0
6180
3f00
0000
0000
ENDCHAR
STARTCHAR 0x2713
ENCODING 8995
SWIDTH 886 0
DWIDTH 12 0
BBX 12 13 0 -2
BITMAP
0000
0000
00c0
0180
0300
0600
0600
6c00
3400
1800
1800
0000
0000
ENDCHAR
STARTCHAR 0x2318
ENCODING 8996
SWIDTH 886 0
DWIDTH 12 0
BBX 12 13 0 -2
BITMAP
0000
71c0
db60
db60
7fc0
1b00
1b00
7fc0
db60
db60
71c0
0000
0000
ENDCHAR
STARTCHAR 0x203C
ENCODING 8993
SWIDTH 886 0
DWIDTH 12 0
BBX 12 13 0 -2
BITMAP
0000
0000
3180
3180
3180
3180
3180
3180
0000
0000
3180
0000
0000
ENDCHAR
STARTCHAR 0x2047
ENCODING 8994
SWIDTH 886 0
DWIDTH 12 0
BBX 12 13 0 -2
BITMAP
0000
0000
7380
dac0
dac0
18c0
3180
6300
6300
0000
6300
0000
0000
ENDCHAR
STARTCHAR 0x2048
ENCODING 8995
SWIDTH 886 0
DWIDTH 12 0
BBX 12 13 0 -2
BITMAP
0000
0000
3980
6d80
6d80
0d80
1980
3180
3000
0000
3180
0000
0000
ENDCHAR
STARTCHAR 0x2049
ENCODING 8996
SWIDTH 886 0
DWIDTH 12 0
BBX 12 13 0 -2
BITMAP
0000
0000
3380
36c0
36c0
30c0
3180
3300
0300
0000
3300
0000
0000
ENDCHAR
STARTCHAR 0x2756
ENCODING 8993
SWIDTH 886 0
DWIDTH 12 0
BBX 12 13 0 -2
BITMAP
0000
0000
0c00
1e00
1e00
7580
fbc0
7580
1e00
1e00
0c00
0000
0000
ENDCHAR
STARTCHAR 0x261E
ENCODING 8994
SWIDTH 886 0
DWIDTH 12 0
BBX 12 13 0 -2
BITMAP
0000
0000
0000
3c00
6de0
c660
ddc0
c180
f300
1e00
0000
0000
0000
ENDCHAR
STARTCHAR 0xFE19
ENCODING 8995
SWIDTH 886 0
DWIDTH 12 0
BBX 12 13 0 -2
BITMAP
0000
0e00
0e00
0000
0000
0e00
0e00
0000
0000
0e00
0e00
0000
0000
ENDCHAR
STARTCHAR 0x274E
ENCODING 8996
SWIDTH 886 0
DWIDTH 12 0
BBX 12 13 0 -2
BITMAP
0000
0000
7f80
c0c0
d340
dac0
ccc0
dac0
d340
c0c0
7f80
0000
0000
ENDCHAR
STARTCHAR 0x274D
ENCODING 8993
SWIDTH 886 0
DWIDTH 12 0
BBX 12 13 0 -2
BITMAP
0000
0000
7f80
ffc0
f3c0
eec0
eec0
eec0
f3c0
ffc0
7f80
0000
0000
ENDCHAR
STARTCHAR 0x29D7
ENCODING 8994
SWIDTH 886 0
DWIDTH 12 0
BBX 12 13 0 -2
BITMAP
0000
0000
7f80
7f80
3f00
1e00
0c00
1e00
3f00
7f80
7f80
0000
0000
ENDCHAR
STARTCHAR 0x27A1
ENCODING 8995
SWIDTH 886 0
DWIDTH 12 0
BBX 12 13 0 -2
BITMAP
0000
0000
0c00
0e00
ff00
ff80
ffc0
ff80
ff00
0e00
0c00
0000
0000
ENDCHAR
STARTCHAR 0x2B05
ENCODING 8996
SWIDTH 886 0
DWIDTH 12 0
BBX 12 13 0 -2
BITMAP
0000
0000
0c00
1c00
3fc0
7fc0
ffc0
7fc0
3fc0
1c00
0c00
0000
0000
ENDCHAR
STARTCHAR 0x2B06
ENCODING 8993
SWIDTH 886 0
DWIDTH 12 0
BBX 12 13 0 -2
BITMAP
0000
0000
0c00
1e00
3f00
7f80
ffc0
3f00
3f00
3f00
3f00
0000
0000
ENDCHAR
STARTCHAR 0x2B07
ENCODING 8994
SWIDTH 886 0
DWIDTH 12 0
BBX 12 13 0 -2
BITMAP
0000
0000
3f00
3f00
3f00
3f00
ffc0
7f80
3f00
1e00
0c00
0000
0000
ENDCHAR
STARTCHAR 0x2611
ENCODING 8995
SWIDTH 886 0
DWIDTH 12 0
BBX 12 13 0 -2
BITMAP
0000
0000
ffc0
c0c0
c340
c6c0
ecc0
d4c0
d8c0
d8c0
ffc0
0000
0000
ENDCHAR
ENDFONT
